<?xml version="1.0" encoding="UTF-8"?>
<svg version="1.1" xmlns="http://www.w3.org/2000/svg" width="774" height="774">
<path d="M0 0 C0.66443115 0.11170532 1.3288623 0.22341064 2.01342773 0.33850098 C40.76969371 6.86246508 77.53570791 17.9052136 113 35 C113.88026855 35.41894531 114.76053711 35.83789062 115.66748047 36.26953125 C152.75680883 53.96790418 187.22616805 78.61969384 216 108 C218.6538612 110.66733257 221.32222171 113.31801808 224.015625 115.9453125 C230.83577438 122.62811529 237.09188243 129.48423139 243 137 C243.93022507 138.14231102 244.86263982 139.2828413 245.796875 140.421875 C290.12692103 194.67569075 316.33760629 259.34159561 328 328 C328.1964209 329.13550293 328.3928418 330.27100586 328.59521484 331.44091797 C334.24890228 365.98521874 333.94274776 405.52224025 328 440 C327.88829468 440.66443115 327.77658936 441.3288623 327.66149902 442.01342773 C321.13753492 480.76969371 310.0947864 517.53570791 293 553 C292.58105469 553.88026855 292.16210938 554.76053711 291.73046875 555.66748047 C274.03209582 592.75680883 249.38030616 627.22616805 220 656 C217.33266743 658.6538612 214.68198192 661.32222171 212.0546875 664.015625 C205.37188471 670.83577438 198.51576861 677.09188243 191 683 C189.85768898 683.93022507 188.7171587 684.86263982 187.578125 685.796875 C133.32430925 730.12692103 68.65840439 756.33760629 0 768 C-1.13550293 768.1964209 -2.27100586 768.3928418 -3.44091797 768.59521484 C-37.98521874 774.24890228 -77.52224025 773.94274776 -112 768 C-112.66443115 767.88829468 -113.3288623 767.77658936 -114.01342773 767.66149902 C-152.76969371 761.13753492 -189.53570791 750.0947864 -225 733 C-225.88026855 732.58105469 -226.76053711 732.16210938 -227.66748047 731.73046875 C-264.75680883 714.03209582 -299.22616805 689.38030616 -328 660 C-330.6538612 657.33266743 -333.32222171 654.68198192 -336.015625 652.0546875 C-342.83577438 645.37188471 -349.09188243 638.51576861 -355 631 C-355.93022507 629.85768898 -356.86263982 628.7171587 -357.796875 627.578125 C-402.12692103 573.32430925 -428.33760629 508.65840439 -440 440 C-440.29463135 438.29674561 -440.29463135 438.29674561 -440.59521484 436.55908203 C-446.24890228 402.01478126 -445.94274776 362.47775975 -440 328 C-439.88829468 327.33556885 -439.77658936 326.6711377 -439.66149902 325.98657227 C-433.13753492 287.23030629 -422.0947864 250.46429209 -405 215 C-404.58105469 214.11973145 -404.16210938 213.23946289 -403.73046875 212.33251953 C-386.03209582 175.24319117 -361.38030616 140.77383195 -332 112 C-329.33266743 109.3461388 -326.68198192 106.67777829 -324.0546875 103.984375 C-317.37188471 97.16422562 -310.51576861 90.90811757 -303 85 C-301.85768898 84.06977493 -300.7171587 83.13736018 -299.578125 82.203125 C-245.32430925 37.87307897 -180.65840439 11.66239371 -112 0 C-110.29674561 -0.29463135 -110.29674561 -0.29463135 -108.55908203 -0.59521484 C-74.01478126 -6.24890228 -34.47775975 -5.94274776 0 0 Z " fill="#FEFEFE" transform="translate(443,3)"/>
<path d="M0 0 C0 0.66 0 1.32 0 2 C2.97 2.33 5.94 2.66 9 3 C9 3.66 9 4.32 9 5 C10.32 5 11.64 5 13 5 C13 5.66 13 6.32 13 7 C13.55171875 7.12246094 14.1034375 7.24492187 14.671875 7.37109375 C17.29591255 8.07993611 19.7336953 9.03611256 22.25 10.0625 C23.14203125 10.42472656 24.0340625 10.78695312 24.953125 11.16015625 C25.96632813 11.57587891 25.96632813 11.57587891 27 12 C27 12.66 27 13.32 27 14 C27.7115625 14.24105469 28.423125 14.48210937 29.15625 14.73046875 C32.42352575 16.18907399 34.75664897 18.01995244 37.5 20.3125 C38.87671875 21.45138672 38.87671875 21.45138672 40.28125 22.61328125 C42.97407967 24.97724523 45.48884165 27.44499603 48 30 C48.80179688 30.77859375 49.60359375 31.5571875 50.4296875 32.359375 C58.43466937 40.18533172 64.88315077 48.02870406 70 58 C70.598125 59.134375 71.19625 60.26875 71.8125 61.4375 C73 64 73 64 73 66 C73.66 66 74.32 66 75 66 C75.75580521 67.60143972 76.50421606 69.20636893 77.25 70.8125 C77.87648438 72.15248047 77.87648438 72.15248047 78.515625 73.51953125 C82.14032057 82.01848849 84.83972754 90.57007773 86.9375 99.5625 C87.18983398 100.63024658 87.44216797 101.69799316 87.70214844 102.7980957 C89.54487299 110.73025037 91.20229017 118.69285076 92.75 126.6875 C93.04765259 128.22482788 93.04765259 128.22482788 93.35131836 129.79321289 C95.6438964 141.97222717 97.25400399 154.00499788 97.70591736 166.39930344 C97.78379759 168.53065753 97.87093439 170.66147791 97.96008301 172.79238892 C98.14791466 177.31962805 98.32471784 181.84726003 98.5 186.375 C98.70367861 191.62726917 98.91224891 196.87926825 99.13157654 202.13090897 C99.21565972 204.19748544 99.29174797 206.26424361 99.36730957 208.33114624 C99.70309797 216.46579108 100.45074424 224.43584574 101.54190063 232.49632263 C102.05203617 236.39798779 102.38496279 240.29329266 102.68408203 244.21533203 C103.31951937 252.44351426 104.39142898 259.80390104 107.1953125 267.6015625 C108 270 108 270 108 273 C108.66 273 109.32 273 110 273 C110.67154933 274.28913487 111.33708859 275.58140204 112 276.875 C112.37125 277.59429687 112.7425 278.31359375 113.125 279.0546875 C114 281 114 281 114 283 C114.66 283 115.32 283 116 283 C116 283.99 116 284.98 116 286 C117.32 286.33 118.64 286.66 120 287 C120 287.66 120 288.32 120 289 C131.29276079 293.58768407 137.71945182 294.26219177 151 295 C151 319.42 151 343.84 151 369 C111.86735714 369 111.86735714 369 98.6875 363.9375 C97.89279297 363.63875977 97.09808594 363.34001953 96.27929688 363.03222656 C87.21113244 359.49369462 76.83358206 355.08984138 70 348 C69.01 347.67 68.02 347.34 67 347 C65.49885632 345.34731229 64.07026333 343.62793314 62.6875 341.875 C60.15523257 338.68818848 57.63137812 335.55662502 54.875 332.5625 C50.82764282 327.85549068 47.93250256 322.44416762 45 317 C44.50628906 316.10410156 44.01257813 315.20820313 43.50390625 314.28515625 C39.57575064 306.52465371 37.12180051 298.37434064 34.625 290.0625 C34.26672119 288.87648193 33.90844238 287.69046387 33.53930664 286.46850586 C33.20922607 285.33550049 32.87914551 284.20249512 32.5390625 283.03515625 C32.24209473 282.0181665 31.94512695 281.00117676 31.63916016 279.95336914 C30.97440887 276.88175099 30.88510336 274.13282893 31 271 C30.34 271 29.68 271 29 271 C25.87060977 253.47628457 24.58543399 236.44908066 24.29321289 218.67944336 C24.13373872 209.1780615 23.73274258 199.80251543 22.72338867 190.34594727 C22.20057308 185.41921299 21.88862962 180.54917548 21.75830078 175.59667969 C21.47622083 165.50016269 20.21786284 155.64752528 18.625 145.6875 C18.51981049 145.01542511 18.41462097 144.34335022 18.3062439 143.65090942 C17.15763578 136.39203078 15.74096094 129.80969617 13 123 C12.48828125 120.03125 12.48828125 120.03125 12.3125 117.5 C12.24675781 116.6440625 12.18101562 115.788125 12.11328125 114.90625 C12.05720703 113.96265625 12.05720703 113.96265625 12 113 C11.34 113 10.68 113 10 113 C10 111.68 10 110.36 10 109 C9.34 109 8.68 109 8 109 C7.62875 108.030625 7.2575 107.06125 6.875 106.0625 C4.26323661 99.97659851 0.4259235 94.5720984 -3.875 89.5625 C-6 87 -6 87 -6 85 C-6.763125 84.71125 -7.52625 84.4225 -8.3125 84.125 C-11 83 -11 83 -14 81 C-14 80.34 -14 79.68 -14 79 C-14.721875 78.9175 -15.44375 78.835 -16.1875 78.75 C-19 78 -19 78 -21.25 76.125 C-24.30244422 73.7662931 -26.84691881 72.88531937 -30.49609375 71.78515625 C-33.12193067 70.96176589 -35.63216148 69.95737738 -38.1875 68.9375 C-54.64469658 63.01290923 -73.8130669 63.76801096 -90.87109375 66.5625 C-93.95893438 66.99425799 -96.88681207 67.07512972 -100 67 C-100 67.66 -100 68.32 -100 69 C-100.95261719 69.12117188 -101.90523438 69.24234375 -102.88671875 69.3671875 C-104.14097656 69.53476562 -105.39523437 69.70234375 -106.6875 69.875 C-107.92886719 70.03742188 -109.17023438 70.19984375 -110.44921875 70.3671875 C-113.59616553 70.9280295 -116.06402956 71.80960653 -119 73 C-120.32 73 -121.64 73 -123 73 C-123.495 74.485 -123.495 74.485 -124 76 C-126.73046875 77.0625 -126.73046875 77.0625 -130.1875 78 C-133.75265798 78.9778719 -136.87888649 79.93802802 -140.17578125 81.625 C-143 83 -143 83 -147 83 C-147 83.66 -147 84.32 -147 85 C-148.36125 85.4021875 -148.36125 85.4021875 -149.75 85.8125 C-152.97317446 86.79657659 -152.97317446 86.79657659 -155.125 88.6875 C-157 90 -157 90 -159 89.9375 C-164.36111481 87.42447743 -165.80306862 83.21771203 -168 78 C-169.31037934 76.31522656 -170.63823078 74.64351457 -172 73 C-172 72.34 -172 71.68 -172 71 C-172.66 71 -173.32 71 -174 71 C-174.28875 70.195625 -174.5775 69.39125 -174.875 68.5625 C-175.73262568 65.8673532 -175.73262568 65.8673532 -178 65 C-179.04296875 63.3203125 -179.04296875 63.3203125 -180.1875 61.125 C-184.43755826 53.26239221 -189.20289765 45.77550243 -194.73828125 38.75390625 C-196.90480644 35.74223501 -198 33.75659094 -198 30 C-198.66 30 -199.32 30 -200 30 C-199.8671875 28.21875 -199.8671875 28.21875 -199 26 C-192.44172733 21.42725942 -184.92840654 18.341086 -177.33984375 15.921875 C-174.83904933 14.93658705 -173.12803666 13.62156393 -171 12 C-168.89453125 11.12109375 -168.89453125 11.12109375 -166.8125 10.4375 C-164.75047087 9.79714142 -164.75047087 9.79714142 -163 9 C-162.67 8.34 -162.34 7.68 -162 7 C-159.50315736 6.09935319 -157.04390584 5.30449626 -154.5 4.5625 C-153.0179783 4.11802312 -151.53620475 3.67271794 -150.0546875 3.2265625 C-149.3440918 3.01418945 -148.63349609 2.80181641 -147.90136719 2.58300781 C-145.7832882 1.93355062 -143.70557884 1.19787219 -141.625 0.4375 C-134.98415463 -1.82321332 -128.01047226 -3.0539349 -121.15966797 -4.51269531 C-119.13020584 -4.97062052 -117.13539274 -5.50230416 -115.12890625 -6.05078125 C-80.44103866 -14.79630263 -33.48488847 -11.48053319 0 0 Z " fill="#020202" transform="translate(431,188)"/>
<path d="M0 0 C0 0.66 0 1.32 0 2 C0.73863281 2.12246094 1.47726562 2.24492187 2.23828125 2.37109375 C13.59681808 4.95769125 24.70077938 15.31433525 32 24 C32 24.66 32 25.32 32 26 C32.99 26.33 33.98 26.66 35 27 C35 27.99 35 28.98 35 30 C35.99 30.33 36.98 30.66 38 31 C39.7890625 33.80078125 39.7890625 33.80078125 41.625 37.3125 C42.23601562 38.46363281 42.84703125 39.61476563 43.4765625 40.80078125 C44.65733553 43.2804046 45.51116283 45.32460736 46 48 C46.66 48 47.32 48 48 48 C48.33 49.98 48.66 51.96 49 54 C49.66 54 50.32 54 51 54 C51.30744141 55.91425781 51.30744141 55.91425781 51.62109375 57.8671875 C51.89305815 59.53648621 52.16520291 61.20575553 52.4375 62.875 C52.63956055 64.13763672 52.63956055 64.13763672 52.84570312 65.42578125 C52.97783203 66.23144531 53.10996094 67.03710938 53.24609375 67.8671875 C53.36654053 68.61081543 53.4869873 69.35444336 53.61108398 70.12060547 C53.93247105 72.07884647 53.93247105 72.07884647 55 74 C55 79.61 55 85.22 55 91 C30.25 91 5.5 91 -20 91 C-20.99 85.555 -20.99 85.555 -22 80 C-24.73445343 75.21064115 -24.73445343 75.21064115 -29 72 C-29 71.34 -29 70.68 -29 70 C-29.763125 69.855625 -30.52625 69.71125 -31.3125 69.5625 C-34 69 -34 69 -37 68 C-45.92078968 67.20815462 -53.17885622 66.66653646 -60.3984375 72.6875 C-62 74 -62 74 -64 74 C-64.27585937 74.556875 -64.55171875 75.11375 -64.8359375 75.6875 C-65.62058111 77.24625509 -66.43938049 78.78822197 -67.2890625 80.3125 C-74.88018086 95.58352173 -71.19965765 112.40273392 -66.57250977 128.02734375 C-65.99775908 130.00772138 -65.48821656 131.99671551 -65 134 C-64.34 134 -63.68 134 -63 134 C-63 134.66 -63 135.32 -63 136 C-62.34 136 -61.68 136 -61 136 C-60.7525 136.73734375 -60.505 137.4746875 -60.25 138.234375 C-58.88126288 141.26270589 -57.3825407 142.95505271 -55 145.25 C-54.29875 145.93578125 -53.5975 146.6215625 -52.875 147.328125 C-51.09632704 149.06078209 -51.09632704 149.06078209 -49 150 C-49 150.66 -49 151.32 -49 152 C-46.69 152.33 -44.38 152.66 -42 153 C-42 153.66 -42 154.32 -42 155 C-38.04 155.99 -34.08 156.98 -30 158 C-30 158.66 -30 159.32 -30 160 C-11.97559847 159.38996246 -11.97559847 159.38996246 6 158 C6.33 157.01 6.66 156.02 7 155 C10.6037898 153.47839986 13.05220686 153 17 153 C17 152.34 17 151.68 17 151 C20.08809695 149.23537317 21.23312136 149 25 149 C25 149.99 25 150.98 25 152 C25.66 152 26.32 152 27 152 C27 152.66 27 153.32 27 154 C27.66 154 28.32 154 29 154 C29.33 155.65 29.66 157.3 30 159 C30.66 159 31.32 159 32 159 C32.33 160.65 32.66 162.3 33 164 C33.66 164 34.32 164 35 164 C35.33 166.31 35.66 168.62 36 171 C36.99 171 37.98 171 39 171 C39.33 172.65 39.66 174.3 40 176 C40.66 176 41.32 176 42 176 C42.39832031 176.74765625 42.79664063 177.4953125 43.20703125 178.265625 C43.73683594 179.25046875 44.26664063 180.2353125 44.8125 181.25 C45.33457031 182.22453125 45.85664063 183.1990625 46.39453125 184.203125 C47.89761004 186.97527893 47.89761004 186.97527893 49.69921875 189.171875 C51 191 51 191 51 194 C51.66 194 52.32 194 53 194 C53.33 195.32 53.66 196.64 54 198 C54.66 198 55.32 198 56 198 C56 198.66 56 199.32 56 200 C56.66 200 57.32 200 58 200 C58.84069415 201.60032137 59.67231505 203.20541171 60.5 204.8125 C60.9640625 205.70582031 61.428125 206.59914063 61.90625 207.51953125 C63 210 63 210 63 213 C51.69413017 218.83334773 40.24363363 223.69522698 28.2265625 227.87109375 C26.37638329 228.51843248 24.53239311 229.18592561 22.7109375 229.91015625 C9.05269431 235.15724195 -7.21723683 234.43815045 -21.625 234.4375 C-22.54388 234.43923218 -23.46276001 234.44096436 -24.40948486 234.44274902 C-38.87977198 234.43079609 -52.10386729 233.31614978 -66 229 C-67.21558594 228.66613281 -68.43117188 228.33226562 -69.68359375 227.98828125 C-75.59384094 226.23955643 -80.58895063 223.73547387 -85.74609375 220.3671875 C-88.09289131 218.94365345 -90.43006065 217.95182939 -93 217 C-93 216.34 -93 215.68 -93 215 C-94.0828125 214.5978125 -94.0828125 214.5978125 -95.1875 214.1875 C-97.99766383 213.00098638 -100.48416557 211.72514361 -103 210 C-103 209.34 -103 208.68 -103 208 C-103.66 208 -104.32 208 -105 208 C-105 207.34 -105 206.68 -105 206 C-105.87978516 205.62875 -105.87978516 205.62875 -106.77734375 205.25 C-109.32686375 203.81617504 -110.71117065 202.25307196 -112.5625 200 C-114.67356316 197.44227537 -116.19970251 195.866865 -119 194 C-120.77529344 191.33705985 -121.98568358 189.04294926 -123 186 C-123.66 186 -124.32 186 -125 186 C-125.25394531 185.48050781 -125.50789063 184.96101562 -125.76953125 184.42578125 C-127.30193507 181.32079823 -128.83229801 178.27735329 -130.625 175.3125 C-132.68878079 171.84159595 -134 169.0653571 -134 165 C-134.66 165 -135.32 165 -136 165 C-136.96133068 161.68136375 -137.91396392 158.36056045 -138.8515625 155.03515625 C-139.5693942 152.49105832 -140.31574657 149.96303374 -141.0859375 147.43359375 C-148.95349811 120.48867754 -149.65702574 86.78585611 -141 60 C-140.78649902 59.33758301 -140.57299805 58.67516602 -140.35302734 57.99267578 C-137.91285133 50.68745866 -134.60446219 43.79479469 -131 37 C-130.34 37 -129.68 37 -129 37 C-128.855625 36.38125 -128.71125 35.7625 -128.5625 35.125 C-128 33 -128 33 -127 31 C-126.34 31 -125.68 31 -125 31 C-124.731875 30.195625 -124.46375 29.39125 -124.1875 28.5625 C-123.795625 27.716875 -123.40375 26.87125 -123 26 C-121.515 25.505 -121.515 25.505 -120 25 C-119.731875 24.4225 -119.46375 23.845 -119.1875 23.25 C-117.96113256 20.92635642 -116.9525537 19.99663845 -114.9375 18.375 C-111.99175287 16.32880603 -111.99175287 16.32880603 -111 14 C-109.63269944 13.17961966 -108.23052613 12.41670272 -106.8125 11.6875 C-103.83648798 10.09404474 -101.59424521 8.65341778 -99 6.4375 C-93.66727386 2.10466001 -88.00666425 -0.71863223 -81 0 C-81 -0.66 -81 -1.32 -81 -2 C-55.57496645 -11.35641235 -25.22711735 -8.40903912 0 0 Z " fill="#020202" transform="translate(376,323)"/>
<path d="M0 0 C0.68835938 0.00451172 1.37671875 0.00902344 2.0859375 0.01367188 C3.76566335 0.02533664 5.44534375 0.04326729 7.125 0.0625 C7.125 0.7225 7.125 1.3825 7.125 2.0625 C9.105 2.0625 11.085 2.0625 13.125 2.0625 C13.125 2.7225 13.125 3.3825 13.125 4.0625 C14.115 4.0625 15.105 4.0625 16.125 4.0625 C23.30760754 10.2744849 29.86711905 18.60727356 30.62890625 28.33203125 C30.67278011 29.84584446 30.69167556 31.36055689 30.6875 32.875 C30.6879834 33.66310059 30.6884668 34.45120117 30.68896484 35.26318359 C30.49991035 41.87465034 28.84413444 47.19665672 24.125 52.0625 C23.465 52.0625 22.805 52.0625 22.125 52.0625 C21.898125 52.64 21.67125 53.2175 21.4375 53.8125 C18.64739803 58.59553194 14.27299676 60.93598664 9.125 62.52734375 C5.05170688 63.25395984 1.06880612 63.35333304 -3.0625 63.375 C-3.83489014 63.38047852 -4.60728027 63.38595703 -5.40307617 63.39160156 C-11.31628552 63.31766254 -15.86205019 62.40446654 -20.875 59.0625 C-20.875 58.4025 -20.875 57.7425 -20.875 57.0625 C-21.47183594 56.794375 -22.06867188 56.52625 -22.68359375 56.25 C-27.70849589 53.52705838 -30.85777862 48.94294919 -32.75 43.625 C-35.0762917 34.51485168 -35.6299691 23.28385205 -31.0859375 14.82421875 C-29.29448989 12.21795142 -27.25331373 10.13590171 -24.875 8.0625 C-24.40835937 7.5675 -23.94171875 7.0725 -23.4609375 6.5625 C-21.75313074 4.9472345 -20.16037616 3.98850699 -18.0625 2.9375 C-17.41667969 2.60492187 -16.77085937 2.27234375 -16.10546875 1.9296875 C-10.87682585 -0.10316491 -5.53613991 -0.0697382 0 0 Z " fill="#050605" transform="translate(388.875,568.9375)"/>
<path d="M0 0 C0.33 0 0.66 0 1 0 C2.49016115 9.15446499 3.36785896 18.12761681 3.70591736 27.39930344 C3.78379759 29.53065753 3.87093439 31.66147791 3.96008301 33.79238892 C4.14791466 38.31962805 4.32471784 42.84726003 4.5 47.375 C4.70367861 52.62726917 4.91224891 57.87926825 5.13157654 63.13090897 C5.21565972 65.19748544 5.29174797 67.26424361 5.36730957 69.33114624 C5.70424442 77.49356434 6.45733823 85.49144209 7.54953003 93.5798645 C8.07353315 97.55829103 8.39393477 101.49486943 8.625 105.5 C8.73714844 107.37171875 8.73714844 107.37171875 8.8515625 109.28125 C8.90054688 110.1784375 8.94953125 111.075625 9 112 C6.04337979 109.04337979 6.33023016 105.62216708 5.96484375 101.6328125 C5.88126114 100.80167938 5.79767853 99.97054626 5.71156311 99.11422729 C5.4451868 96.45190029 5.19079893 93.78860034 4.9375 91.125 C4.6786095 88.46878823 4.41720226 85.81285736 4.15272522 83.15719604 C3.98872197 81.50369065 3.82829807 79.84982541 3.67185974 78.19558716 C3.29298292 74.06882768 3.29298292 74.06882768 2.48377991 70.01260376 C1.97856256 67.91081675 1.84916643 66.04672689 1.81054688 63.88769531 C1.7937941 63.08380371 1.77704132 62.27991211 1.75978088 61.45166016 C1.74624069 60.58589355 1.7327005 59.72012695 1.71875 58.828125 C1.70065781 57.92078613 1.68256561 57.01344727 1.66392517 56.07861328 C1.62546917 54.13858598 1.58894342 52.19851963 1.5541687 50.25842285 C1.46408602 45.25540834 1.35942951 40.25270941 1.25390625 35.25 C1.23344742 34.27105774 1.21298859 33.29211548 1.19190979 32.2835083 C0.95919738 21.5147798 0.53336029 10.75799049 0 0 Z " fill="#7A7A7A" transform="translate(525,327)"/>
<path d="M0 0 C1.66611905 -0.042721 3.33382885 -0.04063832 5 0 C5.33 0.33 5.66 0.66 6 1 C11.94 1.33 17.88 1.66 24 2 C24 26.42 24 50.84 24 76 C-6 76 -6 76 -19 74 C-19.66 73.34 -20.32 72.68 -21 72 C-18.56212615 72.1409349 -16.12482147 72.28754542 -13.6875 72.4375 C-12.99720703 72.47681641 -12.30691406 72.51613281 -11.59570312 72.55664062 C-8.52838465 72.74927415 -5.93031848 73.02322717 -3 74 C9.87 74.495 9.87 74.495 23 75 C23 51.24 23 27.48 23 3 C16.4 3 9.8 3 3 3 C3 2.34 3 1.68 3 1 C2.01 0.67 1.02 0.34 0 0 Z " fill="#484948" transform="translate(558,481)"/>
<path d="M0 0 C-14.16914714 5.66765886 -29.86438455 5.30796641 -44.8972168 5.20581055 C-47.72258333 5.18726977 -50.5476251 5.18530366 -53.37304688 5.18554688 C-55.19010699 5.18063955 -57.00716491 5.17481469 -58.82421875 5.16796875 C-60.07582039 5.16629951 -60.07582039 5.16629951 -61.35270691 5.16459656 C-65.67688941 5.12947756 -69.74172734 4.85902371 -74 4 C-74 3.67 -74 3.34 -74 3 C-72.92854736 3.01047363 -71.85709473 3.02094727 -70.75317383 3.03173828 C-42.2896927 3.60770902 -42.2896927 3.60770902 -14 1 C-13.67 0.67 -13.34 0.34 -13 0 C-11.57109694 -0.26085451 -10.13057853 -0.45967185 -8.6875 -0.625 C-7.90761719 -0.72039063 -7.12773437 -0.81578125 -6.32421875 -0.9140625 C-3.9912715 -1.00032273 -2.22069091 -0.68094412 0 0 Z " fill="#4B4B4B" transform="translate(401,552)"/>
<path d="M0 0 C0.33 0 0.66 0 1 0 C2.18415339 4.78554552 2.26096856 9.53660792 2.4375 14.4375 C2.74411554 22.01282422 3.29533682 29.52063377 4.0625 37.0625 C5.09666998 47.39586721 5.20256806 57.62401387 5 68 C4.67 68 4.34 68 4 68 C3.9498877 67.29617188 3.89977539 66.59234375 3.84814453 65.8671875 C3.6114241 62.57779341 3.36923452 59.28884489 3.125 56 C3.03621582 54.80117188 2.94743164 53.60234375 2.85595703 52.3671875 C2.38231055 46.20062664 1.79741858 40.11431746 0.875 34 C-0.67633258 22.75283879 -0.16855783 11.32708627 0 0 Z " fill="#949494" transform="translate(451,345)"/>
<path d="M0 0 C0.66 0.33 1.32 0.66 2 1 C1.67 1.66 1.34 2.32 1 3 C0.34 3 -0.32 3 -1 3 C-1.1546875 3.8971875 -1.1546875 3.8971875 -1.3125 4.8125 C-2 7 -2 7 -3.41015625 8.390625 C-5.13626428 10.13793829 -6.05195334 11.73648698 -7.125 13.9375 C-7.62386719 14.94103516 -7.62386719 14.94103516 -8.1328125 15.96484375 C-9.74991348 19.75993208 -10.12158326 23.08767935 -10.09765625 27.203125 C-10.09443359 28.1828125 -10.09121094 29.1625 -10.08789062 30.171875 C-10.07951172 31.18765625 -10.07113281 32.2034375 -10.0625 33.25 C-10.05798828 34.28125 -10.05347656 35.3125 -10.04882812 36.375 C-10.03706088 38.91672573 -10.02062011 41.45833319 -10 44 C-10.33 44 -10.66 44 -11 44 C-13.76804725 32.95049993 -13.51012682 19.51027675 -8.4375 9.29296875 C-6.56092887 6.29963382 -4.74284676 4.22392981 -2 2 C-1.34 1.34 -0.68 0.68 0 0 Z " fill="#979797" transform="translate(316,394)"/>
<path d="M0 0 C-3.68087353 2.45391569 -6.44355588 2.22802759 -10.6875 2.125 C-11.38939453 2.11597656 -12.09128906 2.10695312 -12.81445312 2.09765625 C-14.54311525 2.07413704 -16.27160145 2.03826713 -18 2 C-18 2.66 -18 3.32 -18 4 C-21.63 4 -25.26 4 -29 4 C-20.09606458 -0.45196771 -9.80702898 -0.19229469 0 0 Z " fill="#343434" transform="translate(341,180)"/>
<path d="M0 0 C2.00720923 0.28674418 4.0085944 0.61866701 6 1 C2.91450652 2.66645757 -0.12675325 3.73761596 -3.5 4.6875 C-4.4384375 4.95949219 -5.376875 5.23148438 -6.34375 5.51171875 C-9.00766466 6.00140894 -10.47611372 5.88693174 -13 5 C-10.58112915 2.58112915 -9.25907651 2.50623037 -5.9375 1.9375 C-2.66916048 1.58972434 -2.66916048 1.58972434 0 0 Z " fill="#C5C5C5" transform="translate(314,180)"/>
<path d="M0 0 C0.66 0 1.32 0 2 0 C1.36934845 5.7809725 0.34844868 11.3443706 -1 17 C-1.33 17 -1.66 17 -2 17 C-2.22084624 10.90218999 -2.01167675 5.78357065 0 0 Z " fill="#CACACA" transform="translate(233,383)"/>
<path d="M0 0 C0.6290625 0.19335938 1.258125 0.38671875 1.90625 0.5859375 C7.24216385 2.2092125 12.57759268 3.69460565 18 5 C18 5.33 18 5.66 18 6 C16.58344207 6.0272415 15.16672955 6.04650467 13.75 6.0625 C12.56664062 6.07990234 12.56664062 6.07990234 11.359375 6.09765625 C9.06075329 6.00251462 7.16949782 5.76316406 5 5 C4.67 4.34 4.34 3.68 4 3 C1.97536745 2.34786708 1.97536745 2.34786708 0 2 C0 1.34 0 0.68 0 0 Z " fill="#CDCDCD" transform="translate(300,548)"/>
<path d="M0 0 C-5.89738492 2.29342747 -10.66606918 3.34548714 -17 3 C-12.53675025 -1.46324975 -5.80588187 -1.74176456 0 0 Z " fill="#7F7F7E" transform="translate(401,552)"/>
<path d="M0 0 C-4.96993194 2.43425238 -8.34605369 3.34615998 -14 3 C-14 3.66 -14 4.32 -14 5 C-15.32 4.67 -16.64 4.34 -18 4 C-15.07089056 2.04726038 -12.91867709 1.24603637 -9.5625 0.3125 C-8.61503906 0.04050781 -7.66757812 -0.23148438 -6.69140625 -0.51171875 C-4.01081763 -0.99803744 -2.53712417 -0.89369149 0 0 Z " fill="#515151" transform="translate(301,187)"/>
<path d="M0 0 C0.33 0.66 0.66 1.32 1 2 C1.66 2 2.32 2 3 2 C3.66 6.95 4.32 11.9 5 17 C2.5863604 14.5863604 2.24467148 12.90164101 1.375 9.625 C1.11460937 8.66851562 0.85421875 7.71203125 0.5859375 6.7265625 C0 4 0 4 0 0 Z " fill="#9C9C9C" transform="translate(534,441)"/>
<path d="M0 0 C0.99 0.495 0.99 0.495 2 1 C2 1.99 2 2.98 2 4 C2.66 4 3.32 4 4 4 C4.33 8.29 4.66 12.58 5 17 C2.70053583 13.55080374 2.19230965 10.8618978 1.375 6.8125 C0.98441406 4.90404297 0.98441406 4.90404297 0.5859375 2.95703125 C0.39257812 1.98121094 0.19921875 1.00539063 0 0 Z " fill="#B6B6B6" transform="translate(515,279)"/>
<path d="M0 0 C4.33819529 6.50729293 5.47191953 11.29198093 5 19 C4.67 19 4.34 19 4 19 C3.896875 18.01 3.79375 17.02 3.6875 16 C3.18757859 12.3755698 2.04947963 9.25021292 0.62109375 5.89453125 C0 4 0 4 0 0 Z " fill="#636363" transform="translate(444,307)"/>
<path d="M0 0 C-4.74354436 2.22656164 -8.72250715 3.46148032 -14 4 C-13.67 3.34 -13.34 2.68 -13 2 C-12.01 2 -11.02 2 -10 2 C-10 1.34 -10 0.68 -10 0 C-2.25 -1.125 -2.25 -1.125 0 0 Z " fill="#585858" transform="translate(308,263)"/>
<path d="M0 0 C1.66611905 -0.042721 3.33382885 -0.04063832 5 0 C5.33 0.33 5.66 0.66 6 1 C7.84891946 1.23363881 9.70488031 1.41303635 11.5625 1.5625 C12.57441406 1.64628906 13.58632813 1.73007812 14.62890625 1.81640625 C15.80259766 1.90728516 15.80259766 1.90728516 17 2 C17 2.33 17 2.66 17 3 C12.38 3 7.76 3 3 3 C3 2.34 3 1.68 3 1 C2.01 0.67 1.02 0.34 0 0 Z " fill="#393938" transform="translate(558,481)"/>
<path d="M0 0 C2.00293347 3.00440021 2.49271626 4.70993945 3.125 8.1875 C3.37636719 9.53908203 3.37636719 9.53908203 3.6328125 10.91796875 C3.75398438 11.60503906 3.87515625 12.29210937 4 13 C1.33395417 11.66697708 1.00875212 10.81009519 0 8 C-0.16468671 5.30840157 -0.09005213 2.70156394 0 0 Z " fill="#9D9D9D" transform="translate(462,465)"/>
<path d="M0 0 C0.33 0 0.66 0 1 0 C1 1.98 1 3.96 1 6 C1.66 6 2.32 6 3 6 C3 8.97 3 11.94 3 15 C2.67 15 2.34 15 2 15 C2 13.02 2 11.04 2 9 C1.34 9 0.68 9 0 9 C0 6.03 0 3.06 0 0 Z " fill="#484848" transform="translate(460,450)"/>
<path d="M0 0 C0.33 0.66 0.66 1.32 1 2 C1.66 2 2.32 2 3 2 C3.28875 2.763125 3.5775 3.52625 3.875 4.3125 C4.96269013 7.15029308 4.96269013 7.15029308 7 10 C3.64501065 8.61172854 1.84949545 7.14414226 0 4 C0 2.68 0 1.36 0 0 Z " fill="#5A5A5A" transform="translate(312,457)"/>
<path d="M0 0 C2.64 0 5.28 0 8 0 C8 0.66 8 1.32 8 2 C8.66 2.33 9.32 2.66 10 3 C3.375 2.25 3.375 2.25 0 0 Z " fill="#3C3C3C" transform="translate(307,550)"/>
</svg>
